<svg width="230" height="69" viewBox="0 0 230 69" fill="none" xmlns="http://www.w3.org/2000/svg">
<path d="M28.9107 24.0607C23.8807 23.2107 18.8507 22.3707 13.8207 21.5207C13.8107 21.1707 13.8007 20.8307 13.7907 20.4807C17.5907 18.6107 21.9907 19.3607 26.1707 18.4307C25.5707 16.0207 24.9307 13.7407 24.4307 11.4307C24.0307 9.56069 24.5907 7.98068 26.2607 6.91068C34.2107 1.82068 42.8807 -0.399316 52.3207 0.160684C62.0707 0.740684 70.8907 12.0207 70.4407 21.0007C70.0507 28.8207 67.2707 35.6907 62.8507 41.9507C53.5907 55.0607 41.3107 63.8607 25.4607 67.3707C18.2907 68.9607 10.8807 64.5907 9.52069 57.8707C11.1907 57.7107 12.8507 57.5407 14.5007 57.3807C14.5107 57.1907 14.5207 57.0007 14.5307 56.8207C11.0307 56.1307 7.52069 55.4407 4.02069 54.7607C3.20069 54.6007 2.35069 54.5407 1.59069 54.2507C1.07069 54.0507 0.670693 53.5307 0.210693 53.1607C0.700693 52.7507 1.16069 52.0407 1.70069 51.9707C3.75069 51.6807 5.83069 51.5007 7.91069 51.4607C9.63069 51.4207 10.4707 50.7107 11.1907 49.1107C14.2307 42.3107 17.5607 35.6407 20.6007 28.8407C21.7407 26.2907 23.2707 24.8307 26.1707 24.9407C27.1007 24.9807 28.0407 24.6907 28.9707 24.5607L28.8907 24.0807L28.9107 24.0607ZM44.4507 32.4707V31.0107C46.9007 30.5907 49.3807 30.2507 51.8207 29.7307C52.8107 29.5207 54.2907 29.1807 54.5707 28.5007C56.1807 24.5507 57.6307 20.5207 58.8507 16.4307C59.5007 14.2707 58.0907 13.0607 56.0307 12.5507C52.2907 11.6307 48.7707 12.3407 45.3907 13.9707C44.9707 14.1707 44.3807 14.8807 44.4707 15.1807C45.3407 18.0607 43.6107 20.1107 42.3007 22.2807C37.6007 30.0807 32.8307 37.8507 28.1707 45.6707C26.6307 48.2607 25.3107 50.9807 23.6007 54.1907C24.9907 53.7607 25.6907 53.5907 26.3507 53.3307C33.4307 50.5907 39.5507 46.3907 44.9007 41.0607C47.6007 38.3707 49.7407 34.8707 54.2507 34.9407C54.3207 34.9407 54.4007 34.6807 54.5107 34.4707C51.1407 33.8007 47.7907 33.1407 44.4407 32.4707H44.4507Z" fill="white"/>
<path d="M131.551 22.7508C132.591 22.4608 133.611 22.0208 134.671 21.9208C138.551 21.5208 142.471 21.3708 146.331 20.8308C147.651 20.6508 149.151 19.8908 150.041 18.9108C154.391 14.1308 158.581 9.20076 162.791 4.29076C164.691 2.07076 166.941 1.13076 169.881 1.81076C170.591 1.98076 171.541 1.85076 172.191 1.50076C176.281 -0.689236 181.561 0.640765 184.021 4.51076C185.321 6.56076 184.911 8.59076 184.271 10.7008C181.781 18.8508 179.321 27.0108 176.861 35.1608C176.531 36.2708 176.071 37.3908 176.031 38.5208C175.991 39.8008 176.311 41.1108 176.571 42.3908C176.841 43.7308 177.501 45.0408 177.511 46.3708C177.531 48.2608 175.861 48.2708 174.461 48.5808C174.001 48.6808 173.411 49.4408 173.341 49.9608C172.671 54.8408 172.181 59.7508 171.421 64.6208C171.261 65.6408 170.451 67.0208 169.581 67.3808C166.041 68.8508 160.391 65.8508 159.061 61.9008C160.201 61.6308 161.341 61.3708 162.471 61.1008C162.461 60.9808 162.441 60.8608 162.431 60.7408C158.581 60.3008 154.731 59.8508 150.881 59.4108L150.791 58.3108C152.151 57.9708 153.511 57.3308 154.861 57.3508C157.621 57.3908 158.451 55.9808 158.381 53.5608C158.361 52.7508 158.381 51.9408 158.381 50.7708C152.151 51.7808 146.041 52.7308 139.951 53.8208C139.281 53.9408 138.621 54.7708 138.201 55.4208C136.551 58.0008 134.981 60.6308 133.401 63.2608C131.981 65.6108 130.331 66.0108 128.011 64.5408C125.441 62.9008 124.351 60.2008 125.131 57.2508C125.341 56.4508 125.681 55.6908 125.961 54.9108C127.051 51.9308 128.321 49.1808 132.281 49.4608C132.771 49.4908 133.291 49.0908 134.511 48.6108C129.711 47.8808 125.631 47.2608 121.551 46.6408C121.521 46.4008 121.491 46.1608 121.461 45.9208C121.951 45.5908 122.401 45.1608 122.931 44.9408C123.691 44.6308 124.521 44.3008 125.321 44.2908C131.331 44.2308 135.011 40.9208 137.521 35.8508C137.881 35.1108 138.401 34.4408 138.901 33.7808C141.271 30.6608 142.611 26.3508 147.941 26.6108C147.841 26.3908 147.741 26.1808 147.641 25.9608C142.321 25.2708 137.001 24.5908 131.681 23.9008L131.561 22.7208L131.551 22.7508ZM165.371 19.4108C165.231 19.3108 165.091 19.2108 164.951 19.1108C159.941 25.4808 154.941 31.8608 149.491 38.7908C153.431 38.4108 156.551 38.1608 159.641 37.7508C160.191 37.6808 160.951 36.9708 161.101 36.4208C162.581 30.7708 163.961 25.0908 165.371 19.4108V19.4108Z" fill="white"/>
<path d="M103.591 27.3608C107.151 27.1908 110.131 26.9308 113.101 26.9308C117.681 26.9308 120.131 28.8908 121.451 33.3108C122.311 36.1808 121.221 37.7008 118.061 38.3008C111.291 39.5908 104.551 41.0108 97.7706 42.2208C95.4906 42.6308 94.0106 43.6408 93.1106 45.7508C92.3506 47.5508 91.3806 49.2608 90.2706 51.4508C93.5206 51.0508 96.2006 50.6108 98.9106 50.4208C101.891 50.2108 104.901 50.0108 107.871 50.1808C112.501 50.4408 116.181 55.5608 115.121 59.9308C114.741 61.4908 113.971 62.5208 112.171 62.8208C104.571 64.0908 96.9806 65.4708 89.3906 66.8208C88.4106 66.9908 87.4306 67.1908 86.4506 67.3508C81.8906 68.0808 78.8606 66.4108 77.2006 62.1508C76.3706 60.0108 75.3206 57.8608 75.0206 55.6308C74.6206 52.6708 75.6806 51.7008 78.6306 51.1408C79.4806 50.9808 80.3106 50.7208 81.1106 50.0208C76.4706 49.2908 71.8406 48.5608 67.2006 47.8308C67.1706 47.5208 67.1406 47.2208 67.1106 46.9108C67.9306 46.5608 68.7306 46.0508 69.5806 45.9008C71.3806 45.5808 73.2306 45.1908 75.0206 45.3108C77.6906 45.4908 78.7506 44.1708 79.7006 41.9408C81.3506 38.0608 83.4906 34.3808 85.1506 30.5108C86.1106 28.2808 87.5106 27.3108 89.8706 27.3708C90.7506 27.3908 91.6306 27.1608 92.5406 26.4408C87.2706 25.5408 82.0006 24.6308 76.7306 23.7308L76.5406 22.8708C77.4106 22.5408 78.2706 22.0408 79.1706 21.9308C82.2206 21.5608 85.3206 21.4708 88.3406 20.9608C89.4506 20.7708 90.4506 19.7608 91.4106 19.0108C91.8306 18.6708 92.0506 18.0508 92.2906 17.5308C94.0006 13.8408 96.2406 10.8308 100.851 10.7608C101.221 10.7608 101.591 10.4608 102.661 10.0008C97.3306 9.14079 92.6906 8.38078 88.0406 7.63078C88.0106 7.38078 87.9706 7.12078 87.9406 6.87078C88.6106 6.52078 89.2306 6.01079 89.9406 5.85079C101.941 3.00079 114.071 1.04079 126.461 1.47079C131.181 1.63079 134.511 5.50079 134.171 10.0708C133.961 12.9108 132.941 13.6808 130.131 14.0208C123.961 14.7708 117.801 15.7308 111.661 16.6708C110.991 16.7708 110.171 17.2108 109.811 17.7508C107.781 20.7608 105.871 23.8408 103.611 27.3808L103.591 27.3608Z" fill="white"/>
<path d="M179.071 52.8207C180.001 52.5007 180.911 52.0407 181.871 51.9007C183.921 51.5907 186.001 51.2407 188.061 51.2707C190.141 51.3007 190.881 50.3007 191.541 48.5307C193.031 44.4907 194.851 40.5807 196.381 36.5507C197.081 34.6907 198.181 34.0007 200.121 34.1107C201.241 34.1707 202.381 33.8407 203.551 33.2007C199.581 32.4207 195.621 31.6407 191.651 30.8707C191.621 30.5707 191.591 30.2707 191.561 29.9607C192.651 29.6907 193.751 29.1507 194.821 29.2107C199.171 29.4407 201.851 27.3807 203.171 23.4307C203.891 21.2707 205.241 20.5007 207.471 20.6507C208.991 20.7507 210.541 20.4207 212.131 19.6907C206.871 18.7407 201.621 17.7807 196.361 16.8307C196.331 16.5307 196.291 16.2407 196.261 15.9407C196.971 15.6007 197.641 15.0707 198.381 14.9607C201.091 14.5707 203.821 14.2207 206.551 14.0707C208.181 13.9807 209.101 13.2907 209.861 11.9307C211.101 9.68072 212.491 7.52072 213.841 5.33072C216.211 1.47072 219.731 0.580722 224.131 2.70072C228.311 4.72072 230.261 8.83072 228.301 12.7707C226.251 16.9107 223.581 20.7507 221.231 24.7507C216.151 33.4007 211.101 42.0607 206.051 50.7207C205.851 51.0707 205.721 51.4607 205.421 52.1307C209.341 51.7007 212.991 51.1807 216.661 50.9607C218.961 50.8207 221.341 50.8607 223.591 51.2707C227.701 52.0207 230.581 56.3407 229.901 60.3707C229.631 61.9807 229.081 63.3607 227.111 63.7007C219.521 65.0107 211.921 66.3307 204.351 67.7607C197.361 69.0807 195.961 68.5107 192.401 62.4407C191.541 60.9807 190.661 59.5407 189.481 57.5707H195.931C195.951 57.3307 195.981 57.0807 196.001 56.8407C190.401 55.8707 184.791 54.9007 179.191 53.9307C179.141 53.5707 179.101 53.2107 179.051 52.8507L179.071 52.8207Z" fill="white"/>
</svg>
