<svg width="110" height="100" viewBox="0 0 110 100" fill="none" xmlns="http://www.w3.org/2000/svg">
<rect x="0.983887" y="0.0664062" width="108.475" height="99.2939" rx="8" fill="#393939"/>
<rect x="9.39746" y="9.06055" width="91.6475" height="83.8063" rx="6.33275" fill="#393939" stroke="#464242" stroke-dasharray="2 2"/>
<rect x="50.6566" y="36.2088" width="25.3559" height="25.3559" rx="1.62154" transform="rotate(14.9712 50.6566 36.2088)" stroke="#6F6969" stroke-width="0.602627" stroke-dasharray="1.21 1.21"/>
<rect x="34.9092" y="38.4072" width="25.9585" height="25.9585" rx="1.92285" transform="rotate(-0.122815 34.9092 38.4072)" fill="#5B5858"/>
<path d="M31.9043 53.5537V47.8817H30.9443V51.9057L28.3683 47.8817H27.1443V53.5537H28.1043V49.2577L30.9043 53.5537H31.9043ZM34.7179 52.8417C34.1499 52.8417 33.6299 52.4097 33.6299 51.6017C33.6299 50.7937 34.1499 50.3777 34.7179 50.3777C35.2939 50.3777 35.8059 50.7937 35.8059 51.6017C35.8059 52.4177 35.2939 52.8417 34.7179 52.8417ZM34.7179 49.5377C33.5579 49.5377 32.7019 50.4097 32.7019 51.6017C32.7019 52.8017 33.5579 53.6737 34.7179 53.6737C35.8859 53.6737 36.7419 52.8017 36.7419 51.6017C36.7419 50.4097 35.8859 49.5377 34.7179 49.5377ZM44.1431 53.5537V47.8817H43.1831V51.9057L40.6071 47.8817H39.3831V53.5537H40.3431V49.2577L43.1431 53.5537H44.1431ZM46.3003 53.5537V51.2657H48.6043V50.3777H46.3003V48.7857H48.8683V47.8817H45.3403V53.5537H46.3003ZM53.971 48.7857V47.8817H49.323V48.7857H51.163V53.5537H52.123V48.7857H53.971ZM57.3828 50.4897V48.7297H58.3828C58.9908 48.7297 59.3588 49.0737 59.3588 49.6177C59.3588 50.1537 58.9908 50.4897 58.3828 50.4897H57.3828ZM58.5268 51.3377C59.6148 51.3377 60.3348 50.6097 60.3348 49.6097C60.3348 48.6177 59.6148 47.8817 58.5268 47.8817H56.4228V53.5537H57.3828V51.3377H58.5268ZM63.1737 49.6337C63.1337 49.6257 63.0377 49.6097 62.9257 49.6097C62.4137 49.6097 61.9817 49.8577 61.7977 50.2817V49.6577H60.8937V53.5537H61.8217V51.6977C61.8217 50.9697 62.1497 50.5537 62.8697 50.5537C62.9657 50.5537 63.0697 50.5617 63.1737 50.5777V49.6337ZM64.3973 51.1777C64.4293 50.7617 64.7653 50.3137 65.3493 50.3137C65.9893 50.3137 66.2933 50.7217 66.3093 51.1777H64.3973ZM66.4133 52.1937C66.2853 52.5777 65.9973 52.8737 65.4373 52.8737C64.8613 52.8737 64.3973 52.4497 64.3733 51.8577H67.2213C67.2293 51.8417 67.2453 51.7137 67.2453 51.5617C67.2453 50.3297 66.5413 49.5377 65.3413 49.5377C64.3573 49.5377 63.4453 50.3537 63.4453 51.5857C63.4453 52.9057 64.3813 53.6737 65.4373 53.6737C66.3733 53.6737 66.9893 53.1217 67.1973 52.4417L66.4133 52.1937ZM71.414 49.6577H70.438L69.43 52.4417L68.398 49.6577H67.374L68.958 53.5537H69.886L71.414 49.6577ZM72.8571 53.5537V49.6577H71.9371V53.5537H72.8571ZM71.7931 48.2897C71.7931 48.6257 72.0651 48.8897 72.3931 48.8897C72.7291 48.8897 73.0011 48.6257 73.0011 48.2897C73.0011 47.9537 72.7291 47.6817 72.3931 47.6817C72.0651 47.6817 71.7931 47.9537 71.7931 48.2897ZM74.5423 51.1777C74.5743 50.7617 74.9103 50.3137 75.4943 50.3137C76.1343 50.3137 76.4383 50.7217 76.4543 51.1777H74.5423ZM76.5583 52.1937C76.4303 52.5777 76.1423 52.8737 75.5823 52.8737C75.0063 52.8737 74.5423 52.4497 74.5183 51.8577H77.3663C77.3743 51.8417 77.3903 51.7137 77.3903 51.5617C77.3903 50.3297 76.6863 49.5377 75.4863 49.5377C74.5023 49.5377 73.5903 50.3537 73.5903 51.5857C73.5903 52.9057 74.5263 53.6737 75.5823 53.6737C76.5183 53.6737 77.1343 53.1217 77.3423 52.4417L76.5583 52.1937ZM80.2704 49.6577L79.3504 52.3537L78.5584 49.6577H77.5664L78.8304 53.5537H79.7824L80.7264 50.7537L81.6944 53.5537H82.6224L83.8704 49.6577H82.9264L82.1504 52.3537L81.2304 49.6577H80.2704Z" fill="#E0E0E0"/>
</svg>
