<svg width="25" height="25" viewBox="0 0 25 25" fill="none" xmlns="http://www.w3.org/2000/svg">
<path d="M12.7168 24.458C19.3668 24.458 24.7168 19.108 24.7168 12.458C24.7168 5.80797 19.3668 0.458008 12.7168 0.458008C6.06676 0.458008 0.716797 5.80797 0.716797 12.458C0.716797 19.108 6.06676 24.458 12.7168 24.458Z" fill="#2775CA"/>
<path d="M16.0169 14.3581C16.0169 12.6081 14.9669 12.0081 12.8669 11.7582C11.3669 11.5581 11.0669 11.1582 11.0669 10.4581C11.0669 9.75803 11.5669 9.30815 12.5669 9.30815C13.4669 9.30815 13.9669 9.60815 14.2169 10.3581C14.2669 10.5081 14.4169 10.6081 14.5669 10.6081H15.3668C15.5669 10.6081 15.7169 10.4581 15.7169 10.2582V10.2081C15.5168 9.10811 14.6168 8.25815 13.4669 8.15819V6.95819C13.4669 6.75815 13.3169 6.60815 13.0669 6.55811H12.3169C12.1169 6.55811 11.9669 6.70811 11.9168 6.95819V8.10815C10.4168 8.30819 9.46689 9.30815 9.46689 10.5582C9.46689 12.2082 10.4669 12.8581 12.5669 13.1082C13.9669 13.3581 14.4169 13.6581 14.4169 14.4582C14.4169 15.2582 13.7168 15.8082 12.7669 15.8082C11.4668 15.8082 11.0168 15.2581 10.8668 14.5081C10.8169 14.3082 10.6669 14.2081 10.5169 14.2081H9.66681C9.46689 14.2081 9.31689 14.3581 9.31689 14.5581V14.6082C9.51681 15.8581 10.3169 16.7581 11.9669 17.0082V18.2082C11.9669 18.4081 12.1169 18.5581 12.3668 18.6081H13.1168C13.3169 18.6081 13.4669 18.4581 13.5169 18.2082V17.0082C15.0169 16.7581 16.0169 15.7081 16.0169 14.3581Z" fill="white"/>
<path fill-rule="evenodd" clip-rule="evenodd" d="M5.71684 10.0079C4.26676 13.858 6.2668 18.208 10.1668 19.6079C10.3168 19.708 10.4668 19.9079 10.4668 20.0579V20.758C10.4668 20.858 10.4668 20.908 10.4168 20.9579C10.3668 21.158 10.1668 21.2579 9.96675 21.158C7.1668 20.258 5.01676 18.1079 4.11676 15.308C2.61676 10.558 5.2168 5.50793 9.96675 4.00793C10.0168 3.95801 10.1168 3.95801 10.1668 3.95801C10.3668 4.00793 10.4668 4.15793 10.4668 4.35797V5.05793C10.4668 5.30801 10.3668 5.45801 10.1668 5.55797C8.11684 6.30797 6.46684 7.90793 5.71684 10.0079ZM15.0168 4.20797C15.0668 4.00793 15.2668 3.90797 15.4668 4.00793C18.2168 4.90793 20.4168 7.05797 21.3168 9.90797C22.8168 14.6579 20.2168 19.708 15.4668 21.208C15.4168 21.2579 15.3168 21.2579 15.2668 21.2579C15.0668 21.208 14.9668 21.058 14.9668 20.858V20.158C14.9668 19.9079 15.0668 19.7579 15.2668 19.658C17.3168 18.908 18.9668 17.308 19.7168 15.208C21.1668 11.3579 19.1668 7.00793 15.2668 5.60801C15.1168 5.50793 14.9668 5.30801 14.9668 5.10797V4.40801C14.9668 4.30793 14.9668 4.25801 15.0168 4.20797Z" fill="white"/>
</svg>
